<?xml version="1.0" encoding="UTF-8"?>
<svg xmlns="http://www.w3.org/2000/svg" width="16" height="16" viewBox="0 0 16 16">
  <!-- column -->
  <rect x="4.688" y="2.5" width="6.625" height="1.875" rx="0.375" fill="#96a3b0"/>
  <rect x="5.5" y="4.375" width="5.0" height="6.875" fill="#cdd6e0"/>
  <line x1="6.214" y1="4.562" x2="6.214" y2="11.062" stroke="#6e7c8c" stroke-width="0.156"/><line x1="6.929" y1="4.562" x2="6.929" y2="11.062" stroke="#6e7c8c" stroke-width="0.156"/><line x1="7.643" y1="4.562" x2="7.643" y2="11.062" stroke="#6e7c8c" stroke-width="0.156"/><line x1="8.357" y1="4.562" x2="8.357" y2="11.062" stroke="#6e7c8c" stroke-width="0.156"/><line x1="9.071" y1="4.562" x2="9.071" y2="11.062" stroke="#6e7c8c" stroke-width="0.156"/><line x1="9.786" y1="4.562" x2="9.786" y2="11.062" stroke="#6e7c8c" stroke-width="0.156"/>
  <rect x="5.125" y="11.25" width="5.75" height="1.0" fill="#96a3b0"/>
  <rect x="4.562" y="12.25" width="6.875" height="1.25" rx="0.375" fill="#6e7c8c"/>
  <!-- wind gust in front -->
  <g fill="none" stroke-linecap="round" stroke-linejoin="round">
    <path d="M 1.875,7.96 L 2.547,8.074 L 3.219,8.172 L 3.891,8.247 L 4.562,8.295 L 5.234,8.312 L 5.906,8.299 L 6.578,8.254 L 7.25,8.182 L 7.922,8.086 L 8.594,7.974 L 9.266,7.851 L 9.938,7.726 L 10.609,7.606 L 11.281,7.499 L 11.953,7.412 L 12.625,7.35 L 13.297,7.317 L 13.969,7.316 L 14.641,7.345 L 15.312,7.404" stroke="#46a0fa" stroke-width="0.5"/>
    <path d="M 1.875,9.247 L 2.547,9.39 L 3.219,9.512 L 3.891,9.606 L 4.562,9.666 L 5.234,9.687 L 5.906,9.67 L 6.578,9.614 L 7.25,9.524 L 7.922,9.405 L 8.594,9.264 L 9.266,9.111 L 9.938,8.954 L 10.609,8.804 L 11.281,8.671 L 11.953,8.562 L 12.625,8.485 L 13.297,8.444 L 13.969,8.441 L 14.641,8.478 L 15.312,8.552" stroke="#1f6fe0" stroke-width="0.625"/>
    <path d="M 1.875,10.46 L 2.547,10.574 L 3.219,10.672 L 3.891,10.747 L 4.562,10.795 L 5.234,10.812 L 5.906,10.799 L 6.578,10.754 L 7.25,10.682 L 7.922,10.586 L 8.594,10.474 L 9.266,10.351 L 9.938,10.226 L 10.609,10.106 L 11.281,9.999 L 11.953,9.912 L 12.625,9.85 L 13.297,9.817 L 13.969,9.816 L 14.641,9.845 L 15.312,9.904" stroke="#46a0fa" stroke-width="0.469"/>
    <path d="M 3.062,9.062 L 3.101,9.103 L 3.133,9.154 L 3.155,9.215 L 3.166,9.283 L 3.164,9.357 L 3.147,9.434 L 3.115,9.512 L 3.068,9.587 L 3.006,9.657 L 2.928,9.719 L 2.837,9.77 L 2.734,9.808 L 2.621,9.831 L 2.5,9.835 L 2.375,9.82 L 2.248,9.785 L 2.123,9.728 L 2.003,9.65 L 1.893,9.552 L 1.794,9.433 L 1.712,9.296 L 1.649,9.144 L 1.607,8.978 L 1.59,8.803 L 1.599,8.621 L 1.635,8.437 L 1.7,8.254 L 1.793,8.078 L 1.915,7.913 L 2.062,7.763 L 2.235,7.633 L 2.429,7.526 L 2.643,7.446" stroke="#1f6fe0" stroke-width="0.438"/>
  </g>
</svg>
